<?xml version="1.0" encoding="utf-8"?>
<!-- Generator: Adobe Illustrator 16.0.0, SVG Export Plug-In . SVG Version: 6.00 Build 0)  -->
<!DOCTYPE svg PUBLIC "-//W3C//DTD SVG 1.1//EN" "http://www.w3.org/Graphics/SVG/1.1/DTD/svg11.dtd">
<svg version="1.1" id="Ebene_1" xmlns="http://www.w3.org/2000/svg" xmlns:xlink="http://www.w3.org/1999/xlink" x="0px" y="0px"
	 width="343.197px" height="193.863px" viewBox="0 0.001 343.197 193.863" enable-background="new 0 0.001 343.197 193.863"
	 xml:space="preserve">
<g>
	<g>
		<text transform="matrix(1 0 0 1 0.2329 125.3828)"><tspan x="0" y="0" fill="#1A171B" font-family="'Arimo-Bold'" font-size="20.995">M</tspan><tspan x="17.069" y="0" fill="#1A171B" font-family="'Arimo-Bold'" font-size="20.995">a</tspan></text>
	</g>
	<g>
		<text transform="matrix(1 0 0 1 28.5586 125.3828)"><tspan x="0" y="0" fill="#1A171B" font-family="'Arimo-Bold'" font-size="20.995">in</tspan><tspan x="17.86" y="0" fill="#1A171B" font-family="'Arimo-Bold'" font-size="20.995">z</tspan></text>
	</g>
	<g>
		<text transform="matrix(1 0 0 1 56.5171 125.3828)"><tspan x="0" y="0" fill="#1A171B" font-family="'Arimo-Bold'" font-size="20.995">e</tspan><tspan x="11.256" y="0" fill="#1A171B" font-family="'Arimo-Bold'" font-size="20.995">r</tspan></text>
	</g>
	<g>
		<text transform="matrix(1 0 0 1 75.5239 125.3828)"><tspan x="0" y="0" fill="#1A171B" font-family="'Arimo-Bold'" font-size="20.995"> </tspan><tspan x="5.434" y="0" fill="#1A171B" font-family="'Arimo-Bold'" font-size="20.995">Z</tspan></text>
	</g>
	<g>
		<text transform="matrix(1 0 0 1 93.3838 125.3828)" fill="#1A171B" font-family="'Arimo-Bold'" font-size="20.995">e</text>
	</g>
	<g>
		<text transform="matrix(1 0 0 1 104.6401 125.3828)" fill="#1A171B" font-family="'Arimo-Bold'" font-size="20.995">n</text>
	</g>
	<g>
		<text transform="matrix(1 0 0 1 117.0659 125.3828)"><tspan x="0" y="0" fill="#1A171B" font-family="'Arimo-Bold'" font-size="20.995">t</tspan><tspan x="6.572" y="0" fill="#1A171B" font-family="'Arimo-Bold'" font-size="20.995">r</tspan></text>
	</g>
	<g>
		<text transform="matrix(1 0 0 1 131.3882 125.3828)" fill="#1A171B" font-family="'Arimo-Bold'" font-size="20.995">u</text>
	</g>
	<g>
		<text transform="matrix(1 0 0 1 143.8135 125.3828)" fill="#1A171B" font-family="'Arimo-Bold'" font-size="20.995">m </text>
	</g>
</g>
<g>
	<g>
		<text transform="matrix(1 0 0 1 0.2329 147.7432)" fill="#1A171B" font-family="'Arimo-Bold'" font-size="20.995">f</text>
	</g>
	<g>
		<text transform="matrix(1 0 0 1 6.8047 147.7432)" fill="#1A171B" font-family="'Arimo-Bold'" font-size="20.995">ü</text>
	</g>
	<g>
		<text transform="matrix(1 0 0 1 19.23 147.7432)" fill="#1A171B" font-family="'Arimo-Bold'" font-size="20.995">r</text>
	</g>
	<g>
		<text transform="matrix(1 0 0 1 26.9805 147.7432)" fill="#1A171B" font-family="'Arimo-Bold'" font-size="20.995"> </text>
	</g>
	<g>
		<text transform="matrix(1 0 0 1 32.415 147.7432)" fill="#1A171B" font-family="'Arimo-Bold'" font-size="20.995">D</text>
	</g>
	<g>
		<text transform="matrix(1 0 0 1 47.1567 147.7432)"><tspan x="0" y="0" fill="#1A171B" font-family="'Arimo-Bold'" font-size="20.995">ig</tspan><tspan x="17.86" y="0" fill="#1A171B" font-family="'Arimo-Bold'" font-size="20.995">i</tspan></text>
	</g>
	<g>
		<text transform="matrix(1 0 0 1 70.4507 147.7432)"><tspan x="0" y="0" fill="#1A171B" font-family="'Arimo-Bold'" font-size="20.995">t</tspan><tspan x="6.572" y="0" fill="#1A171B" font-family="'Arimo-Bold'" font-size="20.995">a</tspan></text>
	</g>
	<g>
		<text transform="matrix(1 0 0 1 88.2788 147.7432)"><tspan x="0" y="0" fill="#1A171B" font-family="'Arimo-Bold'" font-size="20.995">l</tspan><tspan x="5.434" y="0" fill="#1A171B" font-family="'Arimo-Bold'" font-size="20.995">i</tspan></text>
	</g>
	<g>
		<text transform="matrix(1 0 0 1 99.1475 147.7432)" fill="#1A171B" font-family="'Arimo-Bold'" font-size="20.995">t</text>
		<text transform="matrix(1 0 0 1 105.7188 147.7432)" fill="#1A171B" font-family="'Arimo-Bold'" font-size="20.995">ä</text>
		<text transform="matrix(1 0 0 1 116.9746 147.7432)" fill="#1A171B" font-family="'Arimo-Bold'" font-size="20.995">t</text>
	</g>
	<g>
		<text transform="matrix(1 0 0 1 123.5469 147.7432)"><tspan x="0" y="0" fill="#1A171B" font-family="'Arimo-Bold'" font-size="20.995"> in </tspan><tspan x="28.728" y="0" fill="#1A171B" font-family="'Arimo-Bold'" font-size="20.995">d</tspan></text>
	</g>
	<g>
		<text transform="matrix(1 0 0 1 164.7007 147.7432)" fill="#1A171B" font-family="'Arimo-Bold'" font-size="20.995">e</text>
	</g>
	<g>
		<text transform="matrix(1 0 0 1 175.957 147.7432)" fill="#1A171B" font-family="'Arimo-Bold'" font-size="20.995">n </text>
	</g>
</g>
<g>
	<g>
		<text transform="matrix(1 0 0 1 0.2329 170.1025)" fill="#1A171B" font-family="'Arimo-Bold'" font-size="20.995">G</text>
	</g>
	<g>
		<text transform="matrix(1 0 0 1 16.1646 170.1025)" fill="#1A171B" font-family="'Arimo-Bold'" font-size="20.995">e</text>
	</g>
	<g>
		<text transform="matrix(1 0 0 1 27.4209 170.1025)" fill="#1A171B" font-family="'Arimo-Bold'" font-size="20.995">i</text>
	</g>
	<g>
		<text transform="matrix(1 0 0 1 32.8555 170.1025)"><tspan x="0" y="0" fill="#1A171B" font-family="'Arimo-Bold'" font-size="20.995">stes</tspan><tspan x="40.341" y="0" fill="#1A171B" font-family="'Arimo-Bold'" font-size="20.995">-</tspan></text>
	</g>
	<g>
		<text transform="matrix(1 0 0 1 79.7681 170.1025)"><tspan x="0" y="0" fill="#1A171B" font-family="'Arimo-Bold'" font-size="20.995"> u</tspan><tspan x="17.86" y="0" fill="#1A171B" font-family="'Arimo-Bold'" font-size="20.995">n</tspan></text>
	</g>
	<g>
		<text transform="matrix(1 0 0 1 110.0532 170.1025)" fill="#1A171B" font-family="'Arimo-Bold'" font-size="20.995">d </text>
	</g>
</g>
<g>
	<g>
		<text transform="matrix(1 0 0 1 0.2329 192.4619)" fill="#1A171B" font-family="'Arimo-Bold'" font-size="20.995">K</text>
	</g>
	<g>
		<text transform="matrix(1 0 0 1 14.9751 192.4619)"><tspan x="0" y="0" fill="#1A171B" font-family="'Arimo-Bold'" font-size="20.995">u</tspan><tspan x="12.426" y="0" fill="#1A171B" font-family="'Arimo-Bold'" font-size="20.995">l</tspan></text>
	</g>
	<g>
		<text transform="matrix(1 0 0 1 32.835 192.4619)" fill="#1A171B" font-family="'Arimo-Bold'" font-size="20.995">t</text>
	</g>
	<g>
		<text transform="matrix(1 0 0 1 39.4063 192.4619)" fill="#1A171B" font-family="'Arimo-Bold'" font-size="20.995">u</text>
	</g>
	<g>
		<text transform="matrix(1 0 0 1 51.832 192.4619)" fill="#1A171B" font-family="'Arimo-Bold'" font-size="20.995">r</text>
	</g>
	<g>
		<text transform="matrix(1 0 0 1 59.5825 192.4619)"><tspan x="0" y="0" fill="#1A171B" font-family="'Arimo-Bold'" font-size="20.995">w</tspan><tspan x="15.932" y="0" fill="#1A171B" font-family="'Arimo-Bold'" font-size="20.995">i</tspan></text>
	</g>
	<g>
		<text transform="matrix(1 0 0 1 80.9482 192.4619)"><tspan x="0" y="0" fill="#1A171B" font-family="'Arimo-Bold'" font-size="20.995">ss</tspan><tspan x="22.555" y="0" fill="#1A171B" font-family="'Arimo-Bold'" font-size="20.995">e</tspan></text>
	</g>
	<g>
		<text transform="matrix(1 0 0 1 114.7178 192.4619)" fill="#1A171B" font-family="'Arimo-Bold'" font-size="20.995">n</text>
	</g>
	<g>
		<text transform="matrix(1 0 0 1 127.1436 192.4619)"><tspan x="0" y="0" fill="#1A171B" font-family="'Arimo-Bold'" font-size="20.995">s</tspan><tspan x="11.256" y="0" fill="#1A171B" font-family="'Arimo-Bold'" font-size="20.995">c</tspan></text>
	</g>
	<g>
		<text transform="matrix(1 0 0 1 149.6567 192.4619)" fill="#1A171B" font-family="'Arimo-Bold'" font-size="20.995">h</text>
	</g>
	<g>
		<text transform="matrix(1 0 0 1 162.082 192.4619)"><tspan x="0" y="0" fill="#1A171B" font-family="'Arimo-Bold'" font-size="20.995">aft</tspan><tspan x="24.463" y="0" fill="#1A171B" font-family="'Arimo-Bold'" font-size="20.995">e</tspan></text>
	</g>
	<g>
		<text transform="matrix(1 0 0 1 197.7383 192.4619)" fill="#1A171B" font-family="'Arimo-Bold'" font-size="20.995">n</text>
	</g>
</g>
<g>
	<defs>
		<rect id="SVGID_1_" x="-1.695" y="-10.208" width="366.086" height="244.466"/>
	</defs>
	<clipPath id="SVGID_2_">
		<use xlink:href="#SVGID_1_"  overflow="visible"/>
	</clipPath>
	<g clip-path="url(#SVGID_2_)">
		<g>
			<text transform="matrix(1 0 0 1 -1.6958 78.5459)" fill="#1A171B" font-family="'mainzedtype-Regular'" font-size="110.9444">mai</text>
		</g>
		<g>
			<text transform="matrix(1 0 0 1 141.1982 78.5459)" fill="#1A171B" font-family="'mainzedtype-Regular'" font-size="110.9444">n</text>
		</g>
		<g>
			<text transform="matrix(1 0 0 1 193.1191 78.5459)" fill="#1A171B" font-family="'mainzedtype-Regular'" font-size="110.9444">z</text>
		</g>
		<g>
			<text transform="matrix(1 0 0 1 238.0498 78.5459)" fill="#1A171B" font-family="'mainzedtype-Regular'" font-size="110.9444">ed</text>
		</g>
	</g>
</g>
</svg>
